<svg id="visual" viewBox="0 0 1400 350" width="1400" height="350" xmlns="http://www.w3.org/2000/svg" xmlns:xlink="http://www.w3.org/1999/xlink" version="1.1"><rect x="0" y="0" width="1400" height="350" fill="#212731"></rect><path d="M400 0L653 0L653 32L642 32L642 64L437 64L437 95L535 95L535 127L417 127L417 159L310 159L310 191L444 191L444 223L528 223L528 255L567 255L567 286L391 286L391 318L579 318L579 350L0 350L0 318L0 318L0 286L0 286L0 255L0 255L0 223L0 223L0 191L0 191L0 159L0 159L0 127L0 127L0 95L0 95L0 64L0 64L0 32L0 32L0 0L0 0Z" fill="#1e7672"></path><path d="M292 0L400 0L400 32L598 32L598 64L508 64L508 95L442 95L442 127L626 127L626 159L289 159L289 191L558 191L558 223L525 223L525 255L349 255L349 286L523 286L523 318L337 318L337 350L0 350L0 318L0 318L0 286L0 286L0 255L0 255L0 223L0 223L0 191L0 191L0 159L0 159L0 127L0 127L0 95L0 95L0 64L0 64L0 32L0 32L0 0L0 0Z" fill="#228782"></path><path d="M388 0L350 0L350 32L319 32L319 64L366 64L366 95L307 95L307 127L401 127L401 159L432 159L432 191L456 191L456 223L308 223L308 255L320 255L320 286L427 286L427 318L409 318L409 350L0 350L0 318L0 318L0 286L0 286L0 255L0 255L0 223L0 223L0 191L0 191L0 159L0 159L0 127L0 127L0 95L0 95L0 64L0 64L0 32L0 32L0 0L0 0Z" fill="#279893"></path><path d="M281 0L224 0L224 32L149 32L149 64L214 64L214 95L339 95L339 127L385 127L385 159L150 159L150 191L378 191L378 223L396 223L396 255L306 255L306 286L328 286L328 318L270 318L270 350L0 350L0 318L0 318L0 286L0 286L0 255L0 255L0 223L0 223L0 191L0 191L0 159L0 159L0 127L0 127L0 95L0 95L0 64L0 64L0 32L0 32L0 0L0 0Z" fill="#38a6a0"></path><path d="M109 0L99 0L99 32L171 32L171 64L248 64L248 95L234 95L234 127L195 127L195 159L152 159L152 191L201 191L201 223L292 223L292 255L150 255L150 286L212 286L212 318L222 318L222 350L0 350L0 318L0 318L0 286L0 286L0 255L0 255L0 223L0 223L0 191L0 191L0 159L0 159L0 127L0 127L0 95L0 95L0 64L0 64L0 32L0 32L0 0L0 0Z" fill="#4fb1ab"></path><path d="M127 0L171 0L171 32L194 32L194 64L169 64L169 95L45 95L45 127L177 127L177 159L152 159L152 191L191 191L191 223L160 223L160 255L87 255L87 286L171 286L171 318L127 318L127 350L0 350L0 318L0 318L0 286L0 286L0 255L0 255L0 223L0 223L0 191L0 191L0 159L0 159L0 127L0 127L0 95L0 95L0 64L0 64L0 32L0 32L0 0L0 0Z" fill="#64bbb6"></path></svg>