<svg id="visual" viewBox="0 0 1400 350" width="1400" height="350" xmlns="http://www.w3.org/2000/svg" xmlns:xlink="http://www.w3.org/1999/xlink" version="1.1"><rect x="0" y="0" width="1400" height="350" fill="#212731"></rect><path d="M1002 350L749 350L749 318L760 318L760 286L965 286L965 255L867 255L867 223L985 223L985 191L1092 191L1092 159L958 159L958 127L874 127L874 95L835 95L835 64L1011 64L1011 32L823 32L823 0L1400 0L1400 32L1400 32L1400 64L1400 64L1400 95L1400 95L1400 127L1400 127L1400 159L1400 159L1400 191L1400 191L1400 223L1400 223L1400 255L1400 255L1400 286L1400 286L1400 318L1400 318L1400 350L1400 350Z" fill="#1e7672"></path><path d="M1110 350L1002 350L1002 318L804 318L804 286L894 286L894 255L960 255L960 223L776 223L776 191L1113 191L1113 159L844 159L844 127L877 127L877 95L1053 95L1053 64L879 64L879 32L1065 32L1065 0L1400 0L1400 32L1400 32L1400 64L1400 64L1400 95L1400 95L1400 127L1400 127L1400 159L1400 159L1400 191L1400 191L1400 223L1400 223L1400 255L1400 255L1400 286L1400 286L1400 318L1400 318L1400 350L1400 350Z" fill="#228782"></path><path d="M1014 350L1052 350L1052 318L1083 318L1083 286L1036 286L1036 255L1095 255L1095 223L1001 223L1001 191L970 191L970 159L946 159L946 127L1094 127L1094 95L1082 95L1082 64L975 64L975 32L993 32L993 0L1400 0L1400 32L1400 32L1400 64L1400 64L1400 95L1400 95L1400 127L1400 127L1400 159L1400 159L1400 191L1400 191L1400 223L1400 223L1400 255L1400 255L1400 286L1400 286L1400 318L1400 318L1400 350L1400 350Z" fill="#279893"></path><path d="M1121 350L1178 350L1178 318L1253 318L1253 286L1188 286L1188 255L1063 255L1063 223L1017 223L1017 191L1252 191L1252 159L1024 159L1024 127L1006 127L1006 95L1096 95L1096 64L1074 64L1074 32L1132 32L1132 0L1400 0L1400 32L1400 32L1400 64L1400 64L1400 95L1400 95L1400 127L1400 127L1400 159L1400 159L1400 191L1400 191L1400 223L1400 223L1400 255L1400 255L1400 286L1400 286L1400 318L1400 318L1400 350L1400 350Z" fill="#38a6a0"></path><path d="M1293 350L1303 350L1303 318L1231 318L1231 286L1154 286L1154 255L1168 255L1168 223L1207 223L1207 191L1250 191L1250 159L1201 159L1201 127L1110 127L1110 95L1252 95L1252 64L1190 64L1190 32L1180 32L1180 0L1400 0L1400 32L1400 32L1400 64L1400 64L1400 95L1400 95L1400 127L1400 127L1400 159L1400 159L1400 191L1400 191L1400 223L1400 223L1400 255L1400 255L1400 286L1400 286L1400 318L1400 318L1400 350L1400 350Z" fill="#4fb1ab"></path><path d="M1275 350L1231 350L1231 318L1208 318L1208 286L1233 286L1233 255L1357 255L1357 223L1225 223L1225 191L1250 191L1250 159L1211 159L1211 127L1242 127L1242 95L1315 95L1315 64L1231 64L1231 32L1275 32L1275 0L1400 0L1400 32L1400 32L1400 64L1400 64L1400 95L1400 95L1400 127L1400 127L1400 159L1400 159L1400 191L1400 191L1400 223L1400 223L1400 255L1400 255L1400 286L1400 286L1400 318L1400 318L1400 350L1400 350Z" fill="#64bbb6"></path></svg>