<svg id="visual" viewBox="0 0 1400 350" width="1400" height="350" xmlns="http://www.w3.org/2000/svg" xmlns:xlink="http://www.w3.org/1999/xlink" version="1.1"><rect x="0" y="0" width="1400" height="350" fill="#212731"></rect><path d="M969 0L554 0L554 32L694 32L694 64L1001 64L1001 95L1189 95L1189 127L1040 127L1040 159L531 159L531 191L670 191L670 223L494 223L494 255L516 255L516 286L796 286L796 318L798 318L798 350L0 350L0 318L0 318L0 286L0 286L0 255L0 255L0 223L0 223L0 191L0 191L0 159L0 159L0 127L0 127L0 95L0 95L0 64L0 64L0 32L0 32L0 0L0 0Z" fill="#1e7672"></path><path d="M938 0L751 0L751 32L602 32L602 64L1013 64L1013 95L760 95L760 127L601 127L601 159L775 159L775 191L535 191L535 223L1016 223L1016 255L908 255L908 286L489 286L489 318L625 318L625 350L0 350L0 318L0 318L0 286L0 286L0 255L0 255L0 223L0 223L0 191L0 191L0 159L0 159L0 127L0 127L0 95L0 95L0 64L0 64L0 32L0 32L0 0L0 0Z" fill="#228782"></path><path d="M674 0L649 0L649 32L583 32L583 64L502 64L502 95L672 95L672 127L713 127L713 159L835 159L835 191L671 191L671 223L855 223L855 255L426 255L426 286L648 286L648 318L488 318L488 350L0 350L0 318L0 318L0 286L0 286L0 255L0 255L0 223L0 223L0 191L0 191L0 159L0 159L0 127L0 127L0 95L0 95L0 64L0 64L0 32L0 32L0 0L0 0Z" fill="#279893"></path><path d="M645 0L598 0L598 32L364 32L364 64L312 64L312 95L619 95L619 127L541 127L541 159L675 159L675 191L310 191L310 223L330 223L330 255L557 255L557 286L375 286L375 318L284 318L284 350L0 350L0 318L0 318L0 286L0 286L0 255L0 255L0 223L0 223L0 191L0 191L0 159L0 159L0 127L0 127L0 95L0 95L0 64L0 64L0 32L0 32L0 0L0 0Z" fill="#38a6a0"></path><path d="M166 0L246 0L246 32L259 32L259 64L439 64L439 95L192 95L192 127L288 127L288 159L237 159L237 191L352 191L352 223L225 223L225 255L286 255L286 286L364 286L364 318L189 318L189 350L0 350L0 318L0 318L0 286L0 286L0 255L0 255L0 223L0 223L0 191L0 191L0 159L0 159L0 127L0 127L0 95L0 95L0 64L0 64L0 32L0 32L0 0L0 0Z" fill="#4fb1ab"></path><path d="M274 0L306 0L306 32L163 32L163 64L157 64L157 95L61 95L61 127L305 127L305 159L213 159L213 191L278 191L278 223L337 223L337 255L102 255L102 286L213 286L213 318L265 318L265 350L0 350L0 318L0 318L0 286L0 286L0 255L0 255L0 223L0 223L0 191L0 191L0 159L0 159L0 127L0 127L0 95L0 95L0 64L0 64L0 32L0 32L0 0L0 0Z" fill="#64bbb6"></path></svg>